<svg width="400" height="400" viewBox="0 0 400 400" fill="none" xmlns="http://www.w3.org/2000/svg">
    <rect width="400" height="400" fill="#E5E7EB"/>
    <path d="M160 140C160 151.046 151.046 160 140 160C128.954 160 120 151.046 120 140C120 128.954 128.954 120 140 120C151.046 120 160 128.954 160 140Z" fill="#9CA3AF"/>
    <path fill-rule="evenodd" clip-rule="evenodd" d="M100 180C89.799 180 80.849 186.291 77.556 195.209C74.264 204.127 77.347 214.045 85.144 219.721L170 280L254.856 219.721C262.653 214.045 265.736 204.127 262.444 195.209C259.151 186.291 250.201 180 240 180H100Z" fill="#9CA3AF"/>
    <path d="M300 120H240V280H300V120Z" fill="#9CA3AF"/>
</svg> 